<?xml version="1.0" encoding="utf-8"?>
<!-- Generator: Adobe Illustrator 26.2.1, SVG Export Plug-In . SVG Version: 6.00 Build 0)  -->
<svg version="1.1" id="Layer_1" xmlns="http://www.w3.org/2000/svg" xmlns:xlink="http://www.w3.org/1999/xlink" x="0px" y="0px"
	 viewBox="0 0 3000 3000" style="enable-background:new 0 0 3000 3000;" xml:space="preserve">
<style type="text/css">
	.st0{fill:#FFFFFF;}
</style>
<g>
	<path class="st0" d="M1545.4,2905.3c-37.3,0-73.1-9.4-106.4-28c-6.6-3.7-13-7.7-19.1-11.9c-42.8-29.9-72.6-72.7-85.9-123.7
		l-25.6-97.8l-286.9-1094.3c-6.3-24.1-26.3-42.2-50.9-46.2c-87.7-14.3-175.7-53.1-254.6-112.2c-79.3-59.4-149.7-139.6-203.8-231.9
		c-35-59.7-63.1-124.2-83.6-191.7c-56.1-184.4-51.9-374.9,11.9-536.5c39.3-99.6,99.7-182.7,174.6-240.6
		C659.8,156,709.5,130.3,763,114C806.4,100.8,851.6,94,897.1,94c104.8,0,212,35.8,310.2,103.5c143,98.6,252.7,254.5,308.8,438.9
		c20.5,67.5,33.1,136.7,37.4,205.8c0,0.2,0,0.4,0,0.7c6.5,106.6-7.4,212.2-40,305.5c-32.5,93-84,174.3-148.9,235
		c-18.2,17-24.7,43.2-16.5,66.7l371.4,1068.6l33.2,95.5c19.7,56.8,15.6,117.5-11.6,171.1c-27.3,53.6-73.9,92.8-131.5,110.3
		C1588.6,2902,1567,2905.3,1545.4,2905.3z"/>
	<path d="M897.1,157.1c91.9,0,186.8,31.9,274.4,92.4c131.3,90.6,232.3,234.6,284.3,405.4c19.1,62.8,30.8,127.2,34.7,191.3
		c0,0.4,0,0.7,0.1,1.1c5.9,98.1-6.8,195-36.6,280.4c-29.2,83.5-75,156-132.5,209.8c-36.4,34.1-49.3,86.4-32.9,133.5l51.7,148.7
		l237.1,682l82.7,237.9l33.2,95.5c14.1,40.4,11.1,83.7-8.3,121.9c-19.7,38.7-52.1,65.9-93.6,78.6c-15.1,4.6-30.6,6.9-45.9,6.9
		c-26.4,0-51.8-6.7-75.6-20c-4.7-2.6-9.4-5.5-13.8-8.6c-30.4-21.2-51.5-51.6-61-88l-25.6-97.8l-63.9-243.6l-182.9-697.5
		c-0.1-0.3-0.2-0.7-0.3-1l-39.9-152.2c-12.6-48.2-52.5-84.5-101.7-92.5c-77.7-12.6-156.1-47.4-226.9-100.4
		c-72.6-54.4-137.4-128.2-187.2-213.3c-32.5-55.5-58.6-115.4-77.7-178.3c-52-170.8-48.4-346.6,10.2-495
		c17.9-45.4,40.5-86.9,67-123.2c25.6-35.1,55-65.5,87.5-90.6c38.5-29.7,81.5-51.9,127.6-66C818.8,162.9,857.8,157.1,897.1,157.1
		C897.1,157.1,897.1,157.1,897.1,157.1 M897.1,31c-51.5,0-102.6,7.5-152.5,22.7c-61.3,18.6-117.6,48-167.9,86.8
		C492.8,205.1,426,296.1,381.9,407.8c-69,174.8-73.8,380.1-13.6,578c22.3,73.4,52.7,142.3,89.6,205.2
		c117.9,201.4,302.2,341.9,502.6,374.5l39.9,152.2l0,0l183.1,698.4l63.9,243.6l25.6,97.8c17.2,65.5,56.1,121.2,110.8,159.4
		c7.8,5.5,16,10.6,24.4,15.3c42.8,23.9,89.7,36,137.1,36c27.6,0,55.4-4.1,82.6-12.4c74.1-22.6,134.2-73,169.3-142
		c35.1-69,40.4-147.3,15-220.4l-33.2-95.5l-82.7-237.9l-237.1-682h0l-51.7-148.7c148.3-138.8,223-358.2,208.7-591.1l0,0l0,0
		c-4.5-72.8-17.6-146.9-40-220.3c-60.3-198-178.6-365.7-333.3-472.4C1133.2,69.9,1014.2,31,897.1,31L897.1,31z"/>
</g>
<g>
	<path class="st0" d="M2620.6,2114.8c-29.2-130.9-133.9-219-233.9-196.7c-12.6,2.8-24.6,7.3-35.8,13.2
		c-25.3-22.2-51.7-32.6-76.4-27.1c-17.1,3.8-31.7,14.8-43.6,31.4c-45.7-130.2-128.8-217.8-192.2-198.8c-67.5,20.2-87.2,153.7-44,298
		c6.6,22.2,14.5,43.1,23.1,62.9c-86,5.6-149.3,35.9-158.4,82.9c-13.4,69.2,95.7,148.5,243.7,177.1c15.9,3.1,31.6,5.3,47,7
		c39,71.9,89.8,114.5,135,104.5c21.3-4.7,38.7-20.6,51.8-44.6c18.9,11.5,38.1,16.2,56.3,12.2c20.5-4.6,37.5-19.7,50.4-42.3
		c5,0.6,10,1,15,1.1c-1,13.5-0.1,27.8,3.2,42.2c13.8,62,63.4,103.7,110.7,93.1c47.4-10.6,74.5-69.4,60.7-131.4
		c-7.2-32.2-24-58.8-45.1-75.6C2624,2270.7,2638.2,2194.1,2620.6,2114.8z"/>
	<g>
		<path d="M1931.9,1770c-18.6,34.5-22.4,69.9-11.5,106.2L1979,2072c-23.2-1.4-46.7,1.5-70.5,8.6c-42.6,12.8-71.3,36.9-86.2,72.3
			c-14.9,35.5-15.7,75-2.7,118.6c4,13.3,10.7,24.5,20.1,33.6c9.4,9.2,20.9,16.2,34.5,21c13.6,4.9,26.7,8.6,39.3,11.3
			c12.6,2.7,27.1,5.4,43.5,8.1c16.4,2.7,28.9,5.2,37.6,7.5c22.9,6.5,50.6,17.2,83.2,32.1c1.3,0.4,5,1.9,11.1,4.7
			c6.1,2.7,10.9,4.9,14.2,6.6c3.3,1.7,8.2,4.1,14.5,7.4c6.3,3.3,11.5,6.3,15.5,9c4.1,2.8,8.4,5.8,13,9c4.6,3.2,8.2,6.6,11,10.1
			c2.8,3.5,4.7,7.1,5.7,10.5l45.2,150.8c5.5,18.5,16.8,32.3,33.8,41.5c17,9.2,34.8,11,53.3,5.4l335.1-100.4
			c18.5-5.5,32.3-16.8,41.5-33.8c9.2-17,11-34.8,5.4-53.3l-45.2-150.8c-6.2-20.6-7.5-62.6-4.1-126c4.3-73.2-0.5-133-14.4-179.4
			c-14.8-49.2-40.7-84.6-77.8-106.2c-37.1-21.6-79.8-25-128.3-10c-33.2-12.9-67.4-14.1-102.6-3.5c-7.7,2.3-15,5.1-22,8.3
			c-23.3-5.6-46.1-5.8-68.1-0.7l-26.5-88.5c-11-36.6-33.7-64.2-68.1-82.6c-34.4-18.4-69.9-22.1-106.6-11.1
			C1977.7,1712.9,1950.5,1735.6,1931.9,1770z M2583.3,2418.6c8.6,4.6,14.3,11.5,17,20.6c2.7,9.1,1.8,17.9-2.9,26.5
			c-4.6,8.6-11.5,14.3-20.6,17c-9.1,2.7-17.9,1.8-26.5-2.9c-8.6-4.6-14.3-11.5-17-20.6c-2.7-9.1-1.8-17.9,2.9-26.5
			c4.6-8.6,11.5-14.3,20.6-17C2565.9,2413,2574.7,2414,2583.3,2418.6z M2087.4,1774.8c17.2,9.3,28.6,23,34,41.2l51.9,173.3
			c4.4-7,11.3-13.9,20.9-20.5c9.6-6.7,18.8-11.3,27.5-14c24.1-7.2,47.6-4.2,70.6,9.1c9.3-9.6,20.4-16.4,33.3-20.3
			c12.9-3.9,26.7-4.7,41.2-2.4c14.6,2.3,26.2,7.8,34.9,16.6c9.9-4.9,19.5-8.7,28.5-11.4c58.3-17.5,97.3,6.8,117.1,72.7
			c8.5,28.3,12.3,61.3,11.4,99c-0.9,37.7-1.9,74.8-3.1,111.3c-1.2,36.5,1.9,67.3,9.5,92.4l5,16.8l-335,100.4l-5-16.8
			c-7.4-24.8-24.7-46.2-51.8-64.3c-11.9-7.9-35.7-19.9-71.3-36.2c-35.8-16.7-67-28.6-93.5-35.9c-8.7-2.3-22-5.4-39.8-9.2
			c-55.4-8.5-84.4-16.9-86.9-25.3c-7.4-24.8-8.1-46.5-2.2-65.3c6-18.7,20.7-31.6,44.1-38.6c15-4.5,30.5-6.3,46.6-5.4
			c16.1,0.9,29.6,3.1,40.8,6.6c11.1,3.5,22.5,6.4,34,8.6c11.5,2.3,20.8,2.3,27.7,0.2l-90.4-301.5c-5.2-17.4-3.2-35,6.2-52.6
			c9.4-17.6,22.9-29.1,40.7-34.5C2052.4,1763.6,2070.1,1765.5,2087.4,1774.8z"/>
	</g>
</g>
</svg>
